<?xml version="1.0" encoding="UTF-8"?>
<svg width="42px" height="42px" viewBox="0 0 42 42" version="1.1" xmlns="http://www.w3.org/2000/svg" xmlns:xlink="http://www.w3.org/1999/xlink">
    <title>Group 731</title>
    <defs>
        <circle id="path-1" cx="21" cy="21" r="21"></circle>
        <mask id="mask-2" maskContentUnits="userSpaceOnUse" maskUnits="objectBoundingBox" x="0" y="0" width="42" height="42" fill="white">
            <use xlink:href="#path-1"></use>
        </mask>
        <rect id="path-3" x="0" y="0" width="24" height="24"></rect>
    </defs>
    <g id="Raw-File" stroke="none" stroke-width="1" fill="none" fill-rule="evenodd">
        <g id="Signup" transform="translate(-137.000000, -614.000000)">
            <g id="Group-731" transform="translate(137.000000, 614.000000)">
                <use id="Ellipse-256" stroke="#E3E8F1" mask="url(#mask-2)" stroke-width="1.55555558" stroke-dasharray="0,0" xlink:href="#path-1"></use>
                <g id="google" transform="translate(9.000000, 9.000000)">
                    <mask id="mask-4" fill="white">
                        <use xlink:href="#path-3"></use>
                    </mask>
                    <g id="google-(Background/Mask)"></g>
                    <path d="M22.2753373,10.0859375 L12.2158203,10.0859375 L12.2158203,13.9825591 L18.1205296,13.9825591 C18.0015277,14.9509236 17.3586723,16.4092615 15.9300751,17.3892078 L15.9100496,17.5196631 L19.0906823,19.9343823 L19.311042,19.9559364 C21.334813,18.1242475 22.501524,15.4292348 22.501524,12.2325863 C22.501524,11.369262 22.4300398,10.7392619 22.2753373,10.0859375 Z" id="vector" fill="#4285F4" fill-rule="nonzero" mask="url(#mask-4)"></path>
                    <path d="M19.3091984,19.9562381 L15.928241,17.3894805 C15.0235008,18.0078252 13.8091922,18.4394917 12.2139968,18.4394917 C9.38069282,18.4394917 6.97595831,16.6078625 6.11873675,14.0761719 L5.99308766,14.0866281 L2.68582899,16.5949939 L2.64257812,16.7128233 C4.40445782,20.142835 8.02350032,22.4995918 12.2139968,22.4995918 C15.1068017,22.4995918 17.5353365,21.5662026 19.3091984,19.9562381 Z" id="vector" fill="#34A853" fill-rule="nonzero" mask="url(#mask-4)"></path>
                    <path d="M5.76288562,12.0007792 C5.76288562,11.2774011 5.89378779,10.577428 6.10807327,9.92410354 L6.10208199,9.78496118 L2.75336887,7.23632812 L2.64380506,7.28740068 C1.91764736,8.71075196 1.50097656,10.3091169 1.50097656,12.0007792 C1.50097656,13.6924415 1.91764736,15.2907248 2.64380506,16.714076 L6.11997318,14.0774542 C5.89378752,13.4241298 5.76288562,12.7240768 5.76288562,12.0007792 Z" id="vector" fill="#FBBC05" fill-rule="nonzero" mask="url(#mask-4)"></path>
                    <path d="M16.356882,7.12334859 L19.3806858,4.2299988 C17.5235952,2.53833731 15.1068664,1.5 12.2140465,1.5 C8.02352826,1.5 4.40446697,3.8566476 2.64257812,7.28661919 L6.10685485,9.92332077 C6.97598112,7.3916598 9.3807278,5.55997132 12.2140465,5.55997132 C14.2259219,5.55997132 15.5830395,6.4116331 16.356882,7.12334859 Z" id="vector" fill="#EB4335" fill-rule="nonzero" mask="url(#mask-4)"></path>
                </g>
            </g>
        </g>
    </g>
</svg>