<?xml version="1.0" encoding="UTF-8"?>
<svg width="50px" height="50px" viewBox="0 0 50 50" version="1.1" xmlns="http://www.w3.org/2000/svg" xmlns:xlink="http://www.w3.org/1999/xlink">
    <title>Group 680</title>
    <defs>
        <rect id="path-1" x="0" y="0" width="28" height="28"></rect>
    </defs>
    <g id="Raw-File" stroke="none" stroke-width="1" fill="none" fill-rule="evenodd">
        <g id="Home" transform="translate(-162.000000, -720.000000)">
            <g id="Group-682" transform="translate(29.000000, 708.000000)">
                <g id="Group-681" transform="translate(20.000000, 12.000000)">
                    <g id="Group-680" transform="translate(113.000000, 0.000000)">
                        <path d="M25,50 C38.8071187,50 50,38.8071187 50,25 C50,11.1928813 38.8071187,0 25,0 C11.1928813,0 0,11.1928813 0,25 C0,38.8071187 11.1928813,50 25,50 Z" id="Ellipse-252" fill="#5B67CA"></path>
                        <g id="bi:plus" transform="translate(11.000000, 11.000000)">
                            <mask id="mask-2" fill="white">
                                <use xlink:href="#path-1"></use>
                            </mask>
                            <g id="bi:plus-(Background/Mask)"></g>
                            <g id="Group" mask="url(#mask-2)" fill="#FFFFFF" fill-rule="nonzero">
                                <g transform="translate(7.000000, 7.000000)" id="Vector">
                                    <path d="M7.6187191,0.256281734 C7.78281343,0.420376061 7.875,0.642935563 7.875,0.875 L7.875,6.125 L13.125,6.125 C13.3570644,6.125 13.5796248,6.21718741 13.7437191,6.38128173 C13.9078134,6.54537606 14,6.76793556 14,7 C14,7.23206444 13.9078134,7.45462477 13.7437191,7.6187191 C13.5796248,7.78281343 13.3570644,7.875 13.125,7.875 L7.875,7.875 L7.875,13.125 C7.875,13.3570644 7.78281343,13.5796248 7.6187191,13.7437191 C7.45462477,13.9078134 7.23206444,14 7,14 C6.76793556,14 6.54537606,13.9078134 6.38128173,13.7437191 C6.21718741,13.5796248 6.125,13.3570644 6.125,13.125 L6.125,7.875 L0.875,7.875 C0.642935563,7.875 0.420376061,7.78281343 0.256281734,7.6187191 C0.0921874065,7.45462477 0,7.23206444 0,7 C0,6.76793556 0.0921874065,6.54537606 0.256281734,6.38128173 C0.420376061,6.21718741 0.642935563,6.125 0.875,6.125 L6.125,6.125 L6.125,0.875 C6.125,0.642935563 6.21718741,0.420376061 6.38128173,0.256281734 C6.54537606,0.0921874065 6.76793556,0 7,0 L7,0 C7.23206444,0 7.45462477,0.0921874065 7.6187191,0.256281734 Z"></path>
                                </g>
                            </g>
                        </g>
                    </g>
                </g>
            </g>
        </g>
    </g>
</svg>